<svg width="128" height="28" viewBox="0 0 128 28" fill="none" xmlns="http://www.w3.org/2000/svg">
<g id="Group">
<path id="Vector" fill-rule="evenodd" clip-rule="evenodd" d="M12.7667 3.3001V0.600098H0.533325V3.33343H4.73333V15.1668H8.53333V3.3001H12.7667ZM59.8333 15.1334C59.7333 14.1668 59.6667 13.4334 59.6667 12.9001V8.0001C59.6667 5.96676 58.1667 4.7001 56.2 4.7001C54.7667 4.73343 53.5333 5.36676 52.8333 6.5001C52.4 5.36676 51.1667 4.76676 50 4.76676C48.6 4.76676 47.4 5.23343 46.7333 6.5001L46.6667 5.0001H43.2V15.1334H46.8V9.0001C46.8 8.66676 46.6667 6.93343 48.3 6.93343C49.4 6.93343 49.6667 7.93343 49.6667 8.9001V15.1001H53.2333V9.0001C53.2333 8.66676 53.1 6.93343 54.7333 6.93343C55.8333 6.93343 56.1 7.93343 56.1 8.9001V15.1001L59.8333 15.1334ZM42.4 7.96676V4.86676C40.8333 4.83343 39.6667 5.36676 39.2 6.9001L39.1333 4.96676H35.5333C35.6 5.8001 35.6 6.9001 35.6 7.56676V15.1001H39.2V10.6668C39.2 9.0001 39.7 7.96676 41.6667 7.93343C41.9 7.93343 42.1333 7.93343 42.4 7.96676ZM66.0333 4.7001C62.7333 4.7001 60.5667 6.53343 60.5667 10.0334C60.5667 13.6334 62.7333 15.4001 66.0333 15.4001C69.3333 15.4001 71.5 13.6001 71.5 10.0334C71.4667 6.53343 69.3 4.7001 66.0333 4.7001ZM66.0333 6.83343C67.5333 6.83343 67.8333 8.4001 67.8333 9.96676C67.8333 11.8334 67.5 13.2668 66.0333 13.2668C64.5667 13.2668 64.2333 11.8001 64.2333 9.96676C64.2333 8.36676 64.5 6.8001 66.0333 6.83343ZM23.7667 15.1334C23.6667 14.1668 23.6333 13.4668 23.6333 12.9001V8.0001C23.6333 5.96676 22.1333 4.7001 20.1333 4.7001C19.5333 4.7001 18.9333 4.8001 18.4333 5.03343C17.9667 5.26676 17.5333 5.56676 17.1333 6.06676V0.600098H13.6V15.1334H17.2V9.0001C17.2 8.66676 17.0667 6.93343 18.7 6.93343C19.8333 6.93343 20.0667 7.93343 20.0667 8.9001V15.1001L23.7667 15.1334ZM34.7333 10.7334C34.7667 7.1001 33.6667 4.7001 29.6 4.7001C26.4 4.7001 24.4667 6.66676 24.4667 9.76676C24.4667 13.5668 25.8333 15.4001 29.7667 15.4001C31 15.4001 32.1 15.1334 32.9 14.5668C33.8 13.9668 34.5 13.0668 34.6 11.8001H31.2667C31.1667 12.7334 30.6333 13.3668 29.5667 13.3668C28.2 13.3668 27.9 12.0668 27.9333 10.8001H34.7333V10.7334ZM31.3 8.8001H27.9667C28.0333 7.73343 28.3 6.63343 29.6333 6.56676C30.2333 6.53343 30.6333 6.83343 30.9 7.26676C31.2 7.7001 31.3 8.26676 31.3 8.8001Z" fill="#EE3134"/>
<path id="Vector_2" fill-rule="evenodd" clip-rule="evenodd" d="M127.533 7.76689V4.66689C125.967 4.63356 124.8 5.16689 124.333 6.70023L124.267 4.93356H120.667C120.733 5.76689 120.733 6.86689 120.733 7.53356V15.0669H124.333V10.6669C124.333 9.00023 124.833 7.80023 126.8 7.73356C127.033 7.76689 127.267 7.76689 127.533 7.76689ZM108.9 15.1336C108.8 14.1669 108.767 13.4669 108.767 12.9002V8.00023C108.767 5.96689 107.267 4.70023 105.267 4.70023C104.667 4.70023 104.133 4.80023 103.6 5.03356C103.133 5.26689 102.667 5.56689 102.267 6.06689V0.600228H98.6666V15.1336H102.267V9.00023C102.267 8.66689 102.133 6.93356 103.767 6.93356C104.9 6.93356 105.133 7.93356 105.133 8.90023V15.1002L108.9 15.1336ZM97.8 12.1002C97.8 10.5336 96.9666 9.76689 95.8333 9.33356C93.6666 8.56689 92.0666 8.53356 92.0666 7.73356C92.0666 7.13356 92.4 6.80023 93 6.80023C93.4666 6.80023 93.7666 6.93356 93.9666 7.13356C94.1333 7.33356 94.2333 7.66689 94.2333 8.10023H97.6333C97.5666 5.43356 95.4666 4.73356 93.1666 4.73356C91.2 4.73356 88.6666 5.43356 88.6666 7.86689C88.6666 11.4002 94.4 10.5002 94.4 12.3669C94.4 13.0336 93.8666 13.3336 93.1666 13.3336C92.7666 13.3336 92.4333 13.1336 92.2333 12.8336C92.0333 12.5669 91.9666 12.2002 92 11.8336H88.5666C88.5 14.8669 90.7333 15.4002 93.2333 15.4002C95.5666 15.4002 97.8 14.5669 97.8 12.1002ZM119.833 10.7336C119.867 7.10023 118.767 4.70023 114.7 4.70023C111.5 4.70023 109.567 6.66689 109.567 9.76689C109.567 13.5669 110.9 15.4002 114.867 15.4002C116.1 15.4002 117.2 15.1336 118 14.5669C118.9 13.9669 119.6 13.0669 119.7 11.8002H116.333C116.233 12.7336 115.7 13.3669 114.633 13.3669C113.267 13.3669 112.967 12.0669 113 10.8002H119.867V10.7336H119.833ZM116.467 8.80023H113.133C113.2 7.73356 113.467 6.63356 114.8 6.56689C115.4 6.53356 115.8 6.83356 116.067 7.26689C116.333 7.70023 116.467 8.26689 116.467 8.80023ZM87.7 15.1336V4.96689H84.1V15.1002L87.7 15.1336ZM83 3.23356L83.8333 0.566895H74.2V15.1002H77.9999V9.40023H81.0666L81.8999 6.73356H77.9999V3.23356H83ZM87.7 3.23356L88.5666 0.566895H85.0333L84.1666 3.23356H87.7Z" fill="#EE3134"/>
<path id="Vector_3" fill-rule="evenodd" clip-rule="evenodd" d="M33.4 27.6003V19.4003H34.6999V27.6337H33.4V27.6003ZM121.867 27.7337C119.133 27.7337 117.067 26.2003 117.067 23.5337C117.067 20.8337 119.367 19.167 121.967 19.167C122.9 19.167 123.9 19.467 124.567 19.9003L123.9 20.7003C123.333 20.367 122.7 20.167 122 20.167C121 20.167 120.033 20.467 119.4 21.167C118.867 21.767 118.567 22.5003 118.567 23.567C118.567 24.7337 118.933 25.367 119.533 25.967C120.167 26.6003 121.133 26.767 122.067 26.767C122.833 26.767 123.567 26.5003 124.167 26.167L124.8 26.9337C124.1 27.4003 122.967 27.7337 121.867 27.7337ZM108.067 27.6003V19.4003H109.367V27.6337H108.067V27.6003ZM78.3333 20.367H75.2666V27.6337H74V20.367H70.9333V19.367H78.5L78.3333 20.367ZM9.89994 27.3003C9.26661 27.6003 8.49994 27.767 7.56661 27.767C6.39994 27.767 5.19994 27.5003 4.23328 27.0337L4.76661 26.1003C5.73328 26.567 6.63328 26.8003 7.63328 26.8003C8.29994 26.8003 8.73328 26.7003 9.13328 26.467C9.59994 26.2003 9.86661 25.867 9.86661 25.4003C9.86661 24.7003 9.33328 24.267 8.06661 24.0003L6.73328 23.7003C5.39994 23.4003 4.56661 22.567 4.56661 21.567C4.56661 20.167 5.93328 19.167 7.93328 19.167C9.09994 19.167 10.2999 19.467 11.0999 19.967L10.4999 20.8337C9.69994 20.4003 8.86661 20.167 7.99994 20.167C6.83328 20.167 5.99994 20.6337 5.99994 21.4003C5.99994 22.0003 6.49994 22.367 7.63328 22.6337L8.86661 22.9337C9.56661 23.1003 10.2999 23.4003 10.6999 23.767C11.0999 24.1337 11.3333 24.7003 11.3333 25.2337C11.3666 26.067 10.8333 26.867 9.89994 27.3003ZM62.6666 27.6003L59.4 23.2003C58.8 22.367 57.7333 20.767 57.7333 20.767C57.7333 20.767 57.8333 22.167 57.8666 23.367L57.9 27.6003H56.6V19.4003H58.1666L61.4666 23.9003C62.1 24.767 63 26.167 63 26.167C63 26.167 62.8 24.6337 62.8 23.567L62.7666 19.4337H64.0666V27.667L62.6666 27.6003ZM85.2333 27.6003V19.4003H86.5333V27.6337H85.2333V27.6003ZM100.867 20.367H96.3333V22.8003H100.167V23.767H96.3333V27.6337H95.0333V19.4003H101.033L100.867 20.367ZM43.2333 27.6003V19.4003H49.3333L49.1666 20.4003H44.5666V22.867H48.4666V23.867H44.5666V26.667H49.4666V27.667H43.2333V27.6003ZM23.2333 27.7337C20.4999 27.7337 18.4333 26.2003 18.4333 23.5337C18.4333 20.8337 20.7333 19.167 23.3333 19.167C24.2666 19.167 25.2666 19.467 25.9333 19.9003L25.2666 20.7003C24.6999 20.367 24.0666 20.167 23.3666 20.167C22.3666 20.167 21.3999 20.467 20.7333 21.167C20.1999 21.767 19.8999 22.5003 19.8999 23.567C19.8999 24.7337 20.2666 25.367 20.8666 25.967C21.4999 26.6003 22.4666 26.767 23.3999 26.767C24.1666 26.767 24.8999 26.5003 25.4999 26.167L26.1333 26.9337C25.4666 27.4003 24.3333 27.7337 23.2333 27.7337Z" fill="black"/>
</g>
</svg>
